<?xml version="1.0" standalone="no"?>
<!DOCTYPE svg PUBLIC "-//W3C//DTD SVG 20010904//EN"
 "http://www.w3.org/TR/2001/REC-SVG-20010904/DTD/svg10.dtd">
<svg version="1.0" xmlns="http://www.w3.org/2000/svg"
 width="678.000000pt" height="678.000000pt" viewBox="0 0 678.000000 678.000000"
 preserveAspectRatio="xMidYMid meet">
<metadata>
Created by potrace 1.14, written by Peter Selinger 2001-2017
</metadata>
<g transform="translate(0.000000,678.000000) scale(0.100000,-0.100000)"
fill="#000000" stroke="none">
<path d="M1136 5852 c-14 -23 -80 -308 -101 -437 -61 -377 -57 -708 10 -1070
168 -902 734 -1702 1554 -2195 210 -126 341 -188 341 -162 0 4 7 48 16 97 28
169 19 440 -22 675 -82 462 -304 947 -621 1355 -76 98 -253 289 -260 281 -11
-10 102 -312 260 -696 188 -458 276 -779 277 -1008 l0 -63 -42 25 c-24 14 -88
59 -143 100 -570 423 -954 1123 -1060 1931 -23 171 -30 481 -16 658 7 82 14
154 17 162 6 14 56 4 184 -37 658 -210 1154 -628 1493 -1258 221 -411 374
-991 417 -1585 13 -169 15 -639 5 -761 l-7 -81 -82 -51 c-227 -143 -537 -241
-908 -287 -257 -33 -855 -30 -1168 5 -430 49 -613 75 -953 136 -108 20 -203
34 -209 32 -45 -15 536 -184 972 -283 306 -69 661 -128 945 -157 191 -19 657
-16 817 5 145 20 362 72 461 112 38 15 70 25 72 23 13 -13 -82 -507 -140 -732
-19 -72 -58 -211 -88 -308 -46 -149 -52 -180 -40 -189 17 -14 10 -22 78 86
115 184 250 472 331 708 46 136 112 387 139 531 l16 87 82 77 c247 230 349
351 532 627 113 171 169 262 370 605 450 768 621 970 958 1130 202 97 347 124
600 114 92 -4 167 -4 167 -1 0 3 -53 43 -117 88 -132 93 -158 113 -323 249
-366 303 -567 418 -810 464 -309 59 -566 -46 -811 -331 -78 -91 -184 -241
-176 -249 2 -3 60 18 128 47 417 174 483 193 664 193 116 0 138 -3 209 -27 43
-15 109 -45 145 -67 71 -42 181 -126 181 -138 0 -4 -35 -23 -77 -41 -99 -45
-223 -120 -276 -167 -111 -99 -187 -203 -362 -493 -364 -605 -527 -858 -738
-1146 -121 -164 -267 -345 -279 -345 -5 0 -6 15 -2 33 10 57 7 538 -5 682 -37
448 -132 862 -284 1231 -337 821 -944 1406 -1742 1680 -138 48 -357 106 -465
124 -36 6 -75 13 -87 15 -12 3 -24 2 -27 -3z"/>
</g>
</svg>
